<svg xmlns="http://www.w3.org/2000/svg" viewBox="0 0 170.303 108.5" width="648" height="413" role="img" aria-label="Charles Loughrey Design"><title>Charles Loughrey Design</title><defs><clipPath id="cld-clip"><rect width="161.803" height="100"/></clipPath><filter id="cld-shadow" x="-10%" y="-10%" width="130%" height="130%"><feGaussianBlur stdDeviation="1.5"/></filter></defs><rect x="0" y="0" width="161.803" height="100" fill="#000" opacity=".72" filter="url(#cld-shadow)" transform="translate(3 4)"/><rect x="0" y="0" width="100" height="100" fill="#4C721D"/><rect x="100" y="0" width="61.803" height="61.803" fill="#772122"/><rect x="100" y="61.803" width="61.803" height="38.197" fill="#0067AA"/><g clip-path="url(#cld-clip)" fill="none" stroke="#FFF" stroke-linecap="butt"><path d="M100 0L100 100" stroke-width="1.45"/><path d="M100 61.803L161.803 61.803" stroke-width="1.45"/><path d="M123.607 61.803L123.607 100" stroke-width="0.85"/><path d="M100 76.393L123.607 76.393" stroke-width="0.85"/><path d="M114.59 61.803L114.59 76.393" stroke-width="0.85"/><path d="M114.59 70.82L123.607 70.82" stroke-width="0.85"/><path d="M118.034 70.82L118.034 76.393" stroke-width="0.85"/><path d="M114.59 72.949L118.034 72.949" stroke-width="0.85"/><path d="M0 100A100 100 0 0 1 100 0A61.803 61.803 0 0 1 161.803 61.803A38.197 38.197 0 0 1 123.607 100A23.607 23.607 0 0 1 100 76.393A14.59 14.59 0 0 1 114.59 61.803A9.017 9.017 0 0 1 123.607 70.82A5.573 5.573 0 0 1 118.034 76.393A3.444 3.444 0 0 1 114.59 72.949A2.129 2.129 0 0 1 116.718 70.82A1.316 1.316 0 0 1 118.034 72.136" stroke-width="0.75"/></g></svg>
